.
..............................Site Info...........................

 -   http://www.scenetime.com  *_*   

SceneTime is going to Close sign up on march/1, hurry up! get in before the doors are closed.

     We care to share . Join us on  http://www.scenetime.com 

    Be the first to get new release at  http://www.scenetime.com

        Seed back for speed


...................................NFO:.................................................[IMG]http://img838.imageshack.us/img838/165/decoybridehivecm8.png[/IMG]


[color=blue][size=5][b]The.Decoy.Bride.2011.DVDRip.XVID.AC3.HQ.Hive-CM8[/b][/size][/color]


[b] Thx Hive

CM8 Doing It Right The First Time :D


!!!US Cinemadate is 9th March!!! 
http://www.imdb.com/title/tt1657299/


Source: DVD-R 
(Italian Rental, had English audio on it)

Encode:
got lucky, this new uk movie hits cinema on 9th march, but is already out in italy as
a rental and has english audio on it. good for us
nice cast also with Kelly Macdonald and David Tennant (the Dr. from Dr. Who btw.)

DVD itself was nice, added brightness, sharpness, rgb and denoise
got very nice
enjoy

Video: 720x304 @bitrate 1700 2pass
Audio: English AC3 5.1 @448
Sample: Yes, included[/b]


General
Complete name                  : The.Decoy.Bride.2011.DVDRip.XVID.AC3.HQ.Hive-CM8.avi
Format                         : AVI
Format/Info                    : Audio Video Interleave
File size                      : 1.29 GiB
Duration                       : 1h 25mn
Overall bit rate               : 2 159 Kbps
Writing application            : Nandub v1.0rc2
Writing library                : Nandub build 1853/release

Video
ID                             : 0
Format                         : MPEG-4 Visual
Format profile                 : Advanced Simple@L5
Format settings, BVOP          : 2
Format settings, QPel          : Yes
Format settings, GMC           : No warppoints
Format settings, Matrix        : Default (H.263)
Muxing mode                    : Packed bitstream
Codec ID                       : XVID
Codec ID/Hint                  : XviD
Duration                       : 1h 25mn
Bit rate                       : 1 701 Kbps
Width                          : 720 pixels
Height                         : 304 pixels
Display aspect ratio           : 2.35:1
Frame rate                     : 25.000 fps
Color space                    : YUV
Chroma subsampling             : 4:2:0
Bit depth                      : 8 bits
Scan type                      : Progressive
Compression mode               : Lossy
Bits/(Pixel*Frame)             : 0.311
Stream size                    : 1.02 GiB (79%)
Writing library                : XviD 1.2.1 (UTC 2008-12-04)

Audio
ID                             : 1
Format                         : AC-3
Format/Info                    : Audio Coding 3
Mode extension                 : CM (complete main)
Codec ID                       : 2000
Duration                       : 1h 25mn
Bit rate mode                  : Constant
Bit rate                       : 448 Kbps
Channel(s)                     : 6 channels
Channel positions              : Front: L C R, Side: L R, LFE
Sampling rate                  : 48.0 KHz
Bit depth                      : 16 bits
Compression mode               : Lossy
Stream size                    : 274 MiB (21%)
Alignment                      : Split accross interleaves
Interleave, duration           : 40 ms (1.00 video frame)
Interleave, preload duration   : 500 ms


Plot:
When the world's media descend on the remote Scottish island where a
Hollywood actress is attempting to get married, a local girl is
hired as a decoy bride to put the paparazzi off the scent.


Cast:
Kelly Macdonald   ...    Katie NicAoidh
Alice Eve         ...    Lara Tyler
David Tennant     ...    James Arber
Michael Urie      ...    Steve Korbitz


[img]http://img716.imageshack.us/img716/1566/dbdbdbdb.png[/img]
[img]http://img94.imageshack.us/img94/194/dbdbdbdbdb.png[/img]
[img]http://img196.imageshack.us/img196/2064/dbdb.png[/img]
[img]http://img42.imageshack.us/img42/7633/dbdbdb.png[/img]
[img]http://img694.imageshack.us/img694/3623/dbdbdbdbdbdb.png[/img]
[img]http://img855.imageshack.us/img855/4860/dbdbddbbdbdbdb.png[/img]



Greetz

ViSiON,SPK,SceneLovers,PRESTiGE,SANTi,3LT0N,YanKeeS,COPYxRIGHT,THC,T0XiC
D2U,LKRG,Feel-Free,FLAWL3SS,WBZ,BHRG,26K,NOVA,SeToNeUp,TED,MAGNET,jtr
Unevano,Rapeseed,SAFC,goldadvance,KaN1vE,Pinnz,Wayne
Mr Hive,and most P2P groups
Great Work Guys :D

LOOKING FOR ANYTHING YOU WANT TO LOOK AND SOUND BETTER

CM8@hushmail.com